<svg xmlns="http://www.w3.org/2000/svg" data-name="Layer 1" viewBox="0 0 360 360"><defs><style>.cls-1{fill:#76bc20;}.cls-2{fill:#3f738d;}.cls-3{fill:#fff;}</style></defs><title>Artboard 18</title><path class="cls-1" d="M3.34,293.71V348.9s326.61.58,331.57.55c5.27,0,10.54-.11,15.81-.15a2.88,2.88,0,0,0,2.21-.78,4.06,4.06,0,0,0,1.31-3.24,4.58,4.58,0,0,0-.15-1.42c-.13-.57-.53-1.15-.46-1.71a1.59,1.59,0,0,1,1.07-1.23c1.13-.4,1.53-.89,1.29-1.41-.66-1.47-1.55-2.91-2.45-4.58.56-.62,1.78-1.43,1.08-2.52a6.44,6.44,0,0,1-.63-2.23c-.15-.73.24-1.6-.5-2.18-1.24-1-1.08-1.9-1.27-2.94-.31-1.61-1.66-3.18-2.45-4.77-.49-1-2.26-1.83-1.45-3,.09-.12-.24-.35-.51-.47-1.69-.72-3.34-1.49-5.17-2.14a12.36,12.36,0,0,1-5.39-3.71,15.88,15.88,0,0,0-2.38-1.94,30.52,30.52,0,0,1-2.63-1.62c-.55-.49-.46-1.12-.89-1.64-1.6-1.95-2.34-3.89-.85-5.92.38-.53.39-1.12-.85-1.61a.91.91,0,0,1-.48-1.12c.21-.71,1.33-1.3.48-2.18-.4-.41-.18-.89-1.43-1.1-.26,0-.38-.28-.56-.42l0,0Z"></path><path class="cls-2" d="M79.8,271V248.36c0-33.22-11.51-38.82-37.91-38.82S4,215.14,4,248.36V271ZM18.4,254v-4.43c.21-17.24,1-22.68,23.49-22.68s23.28,5.44,23.49,22.68V254Z"></path><polygon class="cls-2" points="50.44 180.14 50.44 150.35 36.98 150.35 36.98 180.14 18.4 180.14 18.4 145.01 3.98 145.01 3.98 197.13 79.8 197.13 79.8 144.15 65.38 144.15 65.38 180.14 50.44 180.14"></polygon><polygon class="cls-2" points="50.76 113.95 50.76 86.4 36.98 86.4 36.98 113.95 18.5 113.95 18.5 81.06 3.98 81.06 3.98 130.93 79.8 130.93 79.8 113.95 50.76 113.95"></polygon><polygon class="cls-2" points="3.98 28.87 39.05 42.34 3.98 56.48 3.98 76.08 54.33 51.38 79.8 51.38 79.8 34.4 53.87 34.34 3.98 10.55 3.98 28.87"></polygon><path class="cls-2" d="M328.05,245.47c19.68-19.68,27.4-44.64,28.46-92.1l.15-6.76H315.48c-20.91,0-33,10-43.66,18.85-4.69,3.88-9.26,7.66-14.54,10.67a42.82,42.82,0,0,0,0-69.81A103.25,103.25,0,0,1,271.82,117c10.66,8.84,22.75,18.85,43.66,18.85h41.18l-.15-6.77c-1.06-47.44-8.78-72.41-28.46-92.09-17.81-17.8-41.44-25.06-81.58-25.06H113.91V135.83h35.52c20.91,0,33-10,43.66-18.85a103.16,103.16,0,0,1,14.52-10.66,42.82,42.82,0,0,0,0,69.81,103.32,103.32,0,0,1-14.53-10.67c-10.66-8.84-22.75-18.85-43.66-18.85H113.91V270.54H246.47c40.14,0,63.77-7.26,81.58-25.07M200.86,134.31l13.52,1.07a19.15,19.15,0,0,0-.86,4.69l-13-3.61Zm40.21-10a18.39,18.39,0,0,0-4.51-1.63l5.9-12.4,2.06.75Zm3.45,46.62-2.06.75-5.7-12a18.73,18.73,0,0,0,4.42-1.63ZM250,148.4,261,156.18l-1.09,1.89-12.17-5.55A19,19,0,0,0,250,148.4m-32.82,4.12-12.16,5.55-1.1-1.89,10.93-7.78a18.55,18.55,0,0,0,2.33,4.12m25.67,4.56a19.11,19.11,0,0,0,3.58-3.07L254,165l-1.68,1.41ZM264,147.67l-13.38-1.06a19.64,19.64,0,0,0,.75-4.69l13,3.6Zm-13.52-12.29L264,134.31l.38,2.15-13,3.61a18.69,18.69,0,0,0-.86-4.69M261,125.8l-11.07,7.88a18.86,18.86,0,0,0-2.45-4.1l12.43-5.67Zm-26.1-3.4a18.83,18.83,0,0,0-2.4-.17,19.09,19.09,0,0,0-2.4.17l1.31-13.68h2.19Zm-20.6,24.21-13.39,1.06-.38-2.15,13-3.6a18.68,18.68,0,0,0,.75,4.69m4.19,7.4a19.17,19.17,0,0,0,3.59,3.07l-9.48,9.34L210.87,165Zm5.29,4.06a18.57,18.57,0,0,0,4.42,1.63l-5.71,12-2.05-.75Zm6.37,2a18.18,18.18,0,0,0,2.35.16,18.46,18.46,0,0,0,2.36-.16l-1.26,13.21h-2.19ZM254,117l-7.76,11.26a19.26,19.26,0,0,0-3.69-3l9.77-9.62ZM149.43,122.6H127.14V25.14H246.47c36.25,0,57.17,6.13,72.22,21.19,14.51,14.51,21.49,33.1,23.81,65.52q.36,5.13.57,10.75H315.48c-16.14,0-25-7.33-35.22-15.81-11.35-9.39-24.21-20.05-47.81-20.05S196,97.4,184.65,106.79c-10.24,8.48-19.08,15.81-35.22,15.81m63.12-7,5.8,5.72a9.57,9.57,0,0,1,4.39-1.17L220.39,111l2.05-.75,5.3,11.13A9.52,9.52,0,1,1,214,133L204,125.8l1.1-1.89,8.53,3.89a9.53,9.53,0,0,1,1.91-4.12L210.87,117Zm-85.41,55V159.84h22.29c16.14,0,25,7.33,35.22,15.81,11.35,9.4,24.21,20.06,47.8,20.06s36.46-10.66,47.81-20.06c10.23-8.48,19.08-15.81,35.22-15.81h27.59q-.21,5.63-.57,10.75c-2.32,32.42-9.3,51-23.81,65.53-15.05,15-36,21.19-72.22,21.19H127.14Z"></path><path class="cls-2" d="M246.47,38.15H140.15v73.7h9.28c12.27,0,18.67-5.31,28.36-13.33C189.91,88.48,205,76,232.45,76S275,88.48,287.12,98.52c9.68,8,16.09,13.33,28.36,13.33h13.95c-2.32-30.58-8.87-45.26-19.94-56.33-12.37-12.37-30.33-17.37-63-17.37"></path><path class="cls-2" d="M287.11,183.93c-12.11,10-27.19,22.53-54.66,22.53S189.9,194,177.79,183.93c-9.69-8-16.09-13.34-28.37-13.34h-9.26V244.3h106.3c32.69,0,50.66-5,63-17.38,11.06-11.07,17.62-25.75,19.95-56.33h-14c-12.27,0-18.67,5.31-28.37,13.34"></path><path class="cls-3" d="M231.36,108.72l-1.31,13.68a17,17,0,0,1,4.8,0l-1.3-13.68Z"></path><path class="cls-3" d="M210.87,117l4.62,6.72a9.57,9.57,0,0,0-1.92,4.11l-8.52-3.9-1.1,1.9L214,133a9.52,9.52,0,1,0,13.74-11.53l-5.3-11.13-2.06.75,2.36,9.08a9.44,9.44,0,0,0-4.39,1.16l-5.8-5.71Z"></path><path class="cls-3" d="M214.38,135.38l-13.52-1.07-.38,2.15,13,3.61a19.15,19.15,0,0,1,.86-4.69"></path><path class="cls-3" d="M200.86,147.67l13.39-1.07a18.53,18.53,0,0,1-.75-4.68l-13,3.6Z"></path><path class="cls-3" d="M205.05,158.07l12.16-5.55a19.19,19.19,0,0,1-2.33-4.12L204,156.18Z"></path><path class="cls-3" d="M212.55,166.42l9.48-9.34a19.17,19.17,0,0,1-3.59-3.07l-7.57,11Z"></path><path class="cls-3" d="M228.15,159.7a18.57,18.57,0,0,1-4.42-1.63l-3.34,12.87,2.05.75Z"></path><path class="cls-3" d="M233.55,173.26l1.26-13.21a18.46,18.46,0,0,1-2.36.16,18.18,18.18,0,0,1-2.35-.16l1.26,13.21Z"></path><path class="cls-3" d="M241.18,158.07a18.89,18.89,0,0,1-4.42,1.63l5.7,12,2.06-.75Z"></path><path class="cls-3" d="M254,165l-7.58-11a19.11,19.11,0,0,1-3.58,3.07l9.48,9.33Z"></path><path class="cls-3" d="M261,156.18,250,148.4a19,19,0,0,1-2.34,4.12l12.17,5.56Z"></path><path class="cls-3" d="M250.66,146.61,264,147.67l.39-2.15-13-3.6a19.15,19.15,0,0,1-.75,4.69"></path><path class="cls-3" d="M264,134.31l-13.52,1.07a19.07,19.07,0,0,1,.86,4.69l13-3.61Z"></path><path class="cls-3" d="M249.88,133.68,261,125.8l-1.09-1.89-12.43,5.67a18.86,18.86,0,0,1,2.45,4.1"></path><path class="cls-3" d="M242.59,125.18a19.32,19.32,0,0,1,3.69,3L254,117l-1.68-1.41Z"></path><path class="cls-3" d="M236.56,122.69a18.39,18.39,0,0,1,4.51,1.63L244.52,111l-2.06-.75Z"></path><path class="cls-3" d="M35,329.1V315.62c0-3,1.46-4.39,4.42-4.39H47.4c3,0,4.36,1.4,4.36,4.39v3.88H46.48v-3.09c0-.48-.16-.6-.61-.6h-5c-.44,0-.6.12-.6.6V328.3c0,.45.16.61.6.61h5c.45,0,.61-.16.61-.61v-3.11h5.28v3.91c0,3-1.43,4.39-4.39,4.39H39.42C36.46,333.49,35,332.06,35,329.1Z"></path><path class="cls-3" d="M57.86,311.23h5.28v8.55h7.15v-8.55h5.28v22.26H70.29v-9.06H63.14v9.06H57.86Z"></path><path class="cls-3" d="M94.49,328.78h-7.1l-1.27,4.71H80.65l6.74-22.26h7.29l6.77,22.26H95.76Zm-1.21-4.48L91,315.58,88.6,324.3Z"></path><path class="cls-3" d="M124.12,333.49h-5.5l-3.72-7.67h-3.09v7.67h-5.28V311.23h12.4c3,0,4.39,1.4,4.39,4.39v5.56c0,2.51-1,3.88-3,4.26Zm-6.68-12.05c.44,0,.6-.13.6-.61v-4.51c0-.48-.16-.61-.6-.61h-5.63v5.73Z"></path><path class="cls-3" d="M129.87,311.23h5.28v17.62h9.25v4.64H129.87Z"></path><path class="cls-3" d="M149.58,329.1V315.62c0-3,1.43-4.39,4.39-4.39h8.55c3,0,4.39,1.4,4.39,4.39V329.1c0,3-1.4,4.39-4.39,4.39H154C151,333.49,149.58,332.06,149.58,329.1Zm11.45-.19c.47,0,.6-.16.6-.61V316.41c0-.48-.13-.6-.6-.6h-5.57c-.44,0-.6.12-.6.6V328.3c0,.45.16.61.6.61Z"></path><path class="cls-3" d="M177.78,315.84H172v-4.61h16.89v4.61h-5.82v17.65h-5.28Z"></path><path class="cls-3" d="M198.61,315.84h-5.79v-4.61H209.7v4.61h-5.82v17.65h-5.27Z"></path><path class="cls-3" d="M215.17,311.23H230.5v4.58H220.45v4h8v4.51h-8v4.55H230.5v4.58H215.17Z"></path><path class="cls-3" d="M238,333.49h-2.22v-5.28h5.47v3.62a4.51,4.51,0,0,1-1.59,3.41l-2.42,2.57h-1.84Z"></path><path class="cls-3" d="M257.58,311.23H263l7.86,13.07V311.23h5.12v22.26H271l-8.33-13.8v13.8h-5.12Z"></path><path class="cls-3" d="M282.54,329.1V315.62c0-3,1.46-4.39,4.42-4.39h8c2.95,0,4.35,1.4,4.35,4.39v3.88H294v-3.09c0-.48-.15-.6-.6-.6h-5c-.45,0-.6.12-.6.6V328.3c0,.45.15.61.6.61h5c.45,0,.6-.16.6-.61v-3.11h5.28v3.91c0,3-1.43,4.39-4.38,4.39h-8C284,333.49,282.54,332.06,282.54,329.1Z"></path></svg>