<svg class="logo" xmlns="http://www.w3.org/2000/svg" xmlns:xlink="http://www.w3.org/1999/xlink" width="208.4" height="194.865" viewBox="0 0 208.4 194.865">
    <defs>
        <clipPath>
            <rect width="208.4" height="194.865" transform="translate(0 0)" fill="none"></rect>
        </clipPath>
    </defs>
    <g transform="translate(0 -0.001)" clip-path="url(#a)">
        <path d="M1104.707,404.2H1055.96v33.792h4.252c5.627,0,8.562-2.431,13-6.113,5.556-4.6,12.47-10.329,25.064-10.329s19.51,5.728,25.063,10.329c4.444,3.682,7.379,6.113,13.009,6.113h6.4c-1.068-14.02-4.072-20.751-9.146-25.824-5.672-5.674-13.906-7.967-28.9-7.967" transform="translate(-968.289 -365.77)" fill="#1b1e1f"></path>
        <path d="M1123.344,441.686c-5.556,4.6-12.468,10.331-25.063,10.331s-19.509-5.728-25.064-10.331c-4.444-3.678-7.378-6.109-13.006-6.109h-4.251v33.79h48.747c14.988,0,23.225-2.294,28.9-7.965,5.074-5.073,8.078-11.8,9.145-25.824h-6.4c-5.627,0-8.564,2.431-13.006,6.109" transform="translate(-968.289 -336.412)" fill="#1b1e1f"></path>
        <path d="M1142.169,459.754c-9.591,0-15.134,4.588-20.023,8.639a46.913,46.913,0,0,1-6.736,4.932,19.613,19.613,0,0,0,0-32.092,47.132,47.132,0,0,1,6.736,4.932c4.889,4.051,10.432,8.641,20.023,8.641h18.881l-.07-3.1c-.488-21.758-4.026-33.2-13.052-42.23-8.161-8.161-19-11.491-37.4-11.491h-60.78v56.819h16.283c9.59,0,15.131-4.59,20.021-8.641a46.862,46.862,0,0,1,6.736-4.932,19.617,19.617,0,0,0,0,32.092,46.954,46.954,0,0,1-6.735-4.932c-4.89-4.052-10.431-8.639-20.021-8.639h-16.283v56.817h60.78c18.407,0,29.243-3.328,37.4-11.488,9.026-9.028,12.564-20.472,13.052-42.23l.07-3.1h-18.881Zm-52.557-5.644,6.2.5a8.574,8.574,0,0,0-.4,2.147l-5.979-1.653Zm18.438-4.582a8.694,8.694,0,0,0-2.069-.745l2.706-5.685.943.343Zm1.58,21.38-.943.343-2.617-5.5a8.667,8.667,0,0,0,2.029-.747Zm2.526-10.335,5.008,3.566-.5.869-5.579-2.547a8.627,8.627,0,0,0,1.073-1.887m-15.044,1.887-5.579,2.547-.5-.869,5.008-3.566a8.626,8.626,0,0,0,1.072,1.887m11.767,2.093a8.712,8.712,0,0,0,1.642-1.409l3.473,5.043-.769.645Zm9.7-4.315-6.138-.49a8.825,8.825,0,0,0,.344-2.149l5.968,1.649Zm-6.2-5.633,6.2-.5.174.989-5.978,1.653a8.72,8.72,0,0,0-.4-2.147m4.783-4.394-5.075,3.612a8.8,8.8,0,0,0-1.121-1.882l5.695-2.6Zm-11.965-1.562a8.064,8.064,0,0,0-2.2,0l.6-6.272h1Zm-9.448,11.1-6.138.49-.174-.989,5.968-1.649a8.709,8.709,0,0,0,.344,2.149m1.924,3.4a8.665,8.665,0,0,0,1.644,1.409l-4.348,4.278-.768-.645Zm2.422,1.864a8.659,8.659,0,0,0,2.028.747l-2.617,5.5-.943-.343Zm2.921.906a7.969,7.969,0,0,0,2.16,0l-.579,6.059h-1Zm10.976-19.752-3.554,5.165a8.721,8.721,0,0,0-1.694-1.4l4.479-4.41Zm-47.965,2.58h-10.217v-44.69h54.713c16.62,0,26.216,2.816,33.115,9.717,6.651,6.653,9.842,15.194,10.906,30.04.114,1.58.211,3.206.277,4.932h-12.652c-7.406,0-11.46-3.359-16.152-7.247-5.2-4.311-11.1-9.195-21.92-9.195s-16.715,4.884-21.918,9.195c-4.7,3.889-8.75,7.247-16.152,7.247m28.943-3.227,2.675,2.635a4.317,4.317,0,0,1,2-.542l-1.082-4.168.943-.343,2.439,5.128a4.357,4.357,0,1,1-6.3,5.273l-4.618-3.287.5-.869,3.912,1.787a4.3,4.3,0,0,1,.887-1.874l-2.129-3.093Zm48.668,55.276c-6.9,6.9-16.494,9.715-33.115,9.715h-54.713V465.819h10.217c7.4,0,11.455,3.358,16.152,7.247,5.2,4.311,11.1,9.195,21.918,9.195s16.715-4.884,21.92-9.195c4.692-3.889,8.746-7.247,16.152-7.247h12.652c-.065,1.727-.163,3.351-.277,4.93-1.064,14.847-4.255,23.389-10.906,30.042" transform="translate(-974.105 -371.586)" fill="#1b1e1f"></path>
        <path d="M1077.854,420.918l-.6,6.274a8.075,8.075,0,0,1,2.2,0l-.6-6.274Z" transform="translate(-948.364 -350.129)" fill="#fff"></path>
        <path d="M1074.243,424.355l2.129,3.091a4.352,4.352,0,0,0-.887,1.876l-3.912-1.787-.5.869,4.619,3.289a4.359,4.359,0,1,0,6.3-5.277l-2.441-5.126-.943.343,1.082,4.168a4.313,4.313,0,0,0-2,.542l-2.677-2.633Z" transform="translate(-954.146 -349.78)" fill="#fff"></path>
        <path d="M1076.626,427.475l-6.2-.494-.174.987,5.979,1.655a8.672,8.672,0,0,1,.4-2.149" transform="translate(-954.918 -344.456)" fill="#fff"></path>
        <path d="M1070.424,431.421l6.14-.49a8.531,8.531,0,0,1-.345-2.149l-5.97,1.651Z" transform="translate(-954.918 -342.77)" fill="#fff"></path>
        <path d="M1071.576,434.754l5.577-2.547a8.636,8.636,0,0,1-1.072-1.887l-5.008,3.566Z" transform="translate(-954.147 -341.333)" fill="#fff"></path>
        <path d="M1073.479,437.334l4.348-4.278a8.8,8.8,0,0,1-1.643-1.409l-3.473,5.043Z" transform="translate(-952.615 -340.09)" fill="#fff"></path>
        <path d="M1078.523,433.355a8.645,8.645,0,0,1-2.028-.745l-1.529,5.9.943.343Z" transform="translate(-950.505 -339.189)" fill="#fff"></path>
        <path d="M1078.847,439.136l.577-6.059a7.953,7.953,0,0,1-2.158,0l.577,6.059Z" transform="translate(-948.352 -338.752)" fill="#fff"></path>
        <path d="M1080.87,432.61a8.57,8.57,0,0,1-2.026.745l2.615,5.5.943-.343Z" transform="translate(-946.877 -339.189)" fill="#fff"></path>
        <path d="M1085.41,436.69l-3.475-5.043a8.662,8.662,0,0,1-1.643,1.409l4.348,4.278Z" transform="translate(-945.521 -340.09)" fill="#fff"></path>
        <path d="M1087.511,433.885l-5.007-3.566a8.713,8.713,0,0,1-1.071,1.887l5.577,2.547Z" transform="translate(-944.454 -341.333)" fill="#fff"></path>
        <path d="M1082.135,430.932l6.14.49.174-.987-5.969-1.651a8.737,8.737,0,0,1-.345,2.149" transform="translate(-943.797 -342.77)" fill="#fff"></path>
        <path d="M1088.3,426.98l-6.2.493a8.68,8.68,0,0,1,.4,2.149l5.979-1.653Z" transform="translate(-943.828 -344.457)" fill="#fff"></path>
        <path d="M1082.493,429l5.075-3.612-.5-.869-5.695,2.6a8.784,8.784,0,0,1,1.121,1.882" transform="translate(-944.511 -346.762)" fill="#fff"></path>
        <path d="M1080.224,426.949a8.727,8.727,0,0,1,1.694,1.4l3.554-5.166-.769-.645Z" transform="translate(-945.585 -348.611)" fill="#fff"></path>
        <path d="M1078.8,426.976a8.731,8.731,0,0,1,2.069.745l1.58-6.088-.943-.343Z" transform="translate(-946.921 -349.78)" fill="#fff"></path>
        <path d="M1020.208,480.252h6.961v-2.081H1022.6v-2.064h3.656v-2.052H1022.6v-1.835h4.564v-2.079h-6.961Z" transform="translate(-1001.742 -304.07)" fill="#babcbc"></path>
        <path d="M1033.843,470.142h-2.57l-1.822,3.076-1.818-3.076h-2.673l3.1,4.954-3.19,5.157h2.571l1.891-3.163,1.906,3.163h2.671l-3.192-5.112Z" transform="translate(-997.376 -304.069)" fill="#babcbc"></path>
        <path d="M1030.488,472.236h2.628v8.016h2.4v-8.016h2.646v-2.094h-7.671Z" transform="translate(-992.124 -304.07)" fill="#babcbc"></path>
        <path d="M1043.5,474.662v-2.526a1.744,1.744,0,0,0-1.992-1.994h-5.633V480.25h2.4v-3.479h1.4l1.69,3.479h2.5l-1.748-3.651c.939-.174,1.386-.8,1.386-1.938m-2.4-.159c0,.217-.073.275-.275.275h-2.557v-2.6h2.557c.2,0,.275.056.275.273Z" transform="translate(-987.08 -304.069)" fill="#babcbc"></path>
        <path d="M1041.5,480.252h6.961v-2.081h-4.565v-2.064h3.656v-2.052h-3.656v-1.835h4.565v-2.079H1041.5Z" transform="translate(-981.821 -304.07)" fill="#babcbc"></path>
        <path d="M1051.843,475.773l-2.484-5.631h-2.674v10.108h2.282v-6.138l2.039,4.855h1.587l2.036-4.855v6.138h2.34V470.142h-2.658Z" transform="translate(-976.967 -304.069)" fill="#babcbc"></path>
        <path d="M1053.792,480.252h6.961v-2.081h-4.564v-2.064h3.656v-2.052h-3.656v-1.835h4.564v-2.079h-6.961Z" transform="translate(-970.317 -304.07)" fill="#babcbc"></path>
        <path d="M1064,470.142l-3.06,10.11h2.483l.577-2.139h3.221l.579,2.139h2.584l-3.076-10.11Zm.55,5.935,1.069-3.955,1.055,3.955Z" transform="translate(-963.625 -304.069)" fill="#babcbc"></path>
        <rect width="2.396" height="10.11" transform="translate(109.355 166.071)" fill="#babcbc"></rect>
        <path d="M1077.819,474.662v-2.526a1.745,1.745,0,0,0-1.994-1.994h-5.633V480.25h2.4v-3.479h1.4l1.692,3.479h2.5l-1.748-3.651c.937-.174,1.386-.8,1.386-1.938m-2.4-.159c0,.217-.072.275-.273.275h-2.557v-2.6h2.557c.2,0,.273.056.273.273Z" transform="translate(-954.972 -304.069)" fill="#babcbc"></path>
        <path d="M1083.727,474.4l-2.687-.652c-.318-.07-.4-.141-.4-.376v-.937c0-.219.074-.275.275-.275h2.081c.2,0,.273.056.273.275v.908h2.367v-1.212a1.744,1.744,0,0,0-1.99-1.994h-3.41a1.746,1.746,0,0,0-1.994,1.994V473.8c0,1.372.738,1.746,2.081,2.081l2.687.649c.3.074.4.145.4.378v1.053c0,.2-.073.275-.275.275h-2.282c-.2,0-.274-.073-.274-.275V476.93h-2.37v1.33a1.752,1.752,0,0,0,2,1.994h3.608a1.75,1.75,0,0,0,1.994-1.994v-1.777c0-1.372-.737-1.748-2.079-2.079" transform="translate(-947.47 -304.07)" fill="#babcbc"></path>
        <path d="M1089.4,470.142h-5.633v10.11h2.4v-3.265h3.234a1.745,1.745,0,0,0,1.994-1.992v-2.859a1.745,1.745,0,0,0-1.994-1.994m-.4,4.506c0,.217-.072.275-.273.275h-2.557v-2.716h2.557c.2,0,.273.056.273.275Z" transform="translate(-942.267 -304.069)" fill="#babcbc"></path>
        <path d="M1095,470.142h-3.885a1.745,1.745,0,0,0-1.993,1.994v6.125a1.75,1.75,0,0,0,1.993,1.992H1095a1.744,1.744,0,0,0,1.992-1.992v-6.125a1.739,1.739,0,0,0-1.992-1.994m-.4,7.756c0,.2-.058.273-.275.273h-2.528c-.2,0-.273-.072-.273-.273v-5.4c0-.219.072-.277.273-.277h2.528c.217,0,.275.058.275.277Z" transform="translate(-937.258 -304.069)" fill="#babcbc"></path>
        <path d="M1102.511,474.662v-2.526a1.744,1.744,0,0,0-1.992-1.994h-5.633V480.25h2.4v-3.479h1.4l1.69,3.479h2.5l-1.748-3.651c.939-.174,1.386-.8,1.386-1.938m-2.4-.159c0,.217-.073.275-.275.275h-2.557v-2.6h2.557c.2,0,.275.056.275.273Z" transform="translate(-931.865 -304.069)" fill="#babcbc"></path>
        <path d="M1100.074,472.236h2.629v8.016h2.4v-8.016h2.646v-2.094h-7.671Z" transform="translate(-927.011 -304.07)" fill="#babcbc"></path>
        <path d="M1110.749,474.4l-2.687-.652c-.317-.07-.4-.141-.4-.376v-.937c0-.219.074-.275.275-.275h2.081c.2,0,.273.056.273.275v.908h2.369v-1.212a1.746,1.746,0,0,0-1.992-1.994h-3.411a1.746,1.746,0,0,0-1.994,1.994V473.8c0,1.372.738,1.746,2.081,2.081l2.687.649c.3.074.4.145.4.378v1.053c0,.2-.073.275-.275.275h-2.282c-.2,0-.275-.073-.275-.275V476.93h-2.37v1.33a1.752,1.752,0,0,0,2,1.994h3.608a1.75,1.75,0,0,0,1.994-1.994v-1.777c0-1.372-.736-1.748-2.079-2.079" transform="translate(-922.185 -304.07)" fill="#babcbc"></path>
        <path d="M1058.615,465.974c0-16.812-5.827-19.649-19.191-19.649s-19.191,2.838-19.191,19.649v11.436h38.382Zm-7.3,2.836h-23.782v-2.24c.106-8.726.5-11.484,11.891-11.484s11.785,2.758,11.891,11.484Z" transform="translate(-1001.72 -326.355)" fill="#babcbc"></path>
        <path d="M1058.614,429.228h-7.3v18.215h-7.563V432.364h-6.814v15.079h-9.4V429.659h-7.3v26.382h38.381Z" transform="translate(-1001.72 -342.354)" fill="#babcbc"></path>
        <path d="M1058.614,429.377h-14.7V415.432h-6.975v13.945h-9.35V412.727h-7.353v25.246h38.381Z" transform="translate(-1001.72 -357.793)" fill="#babcbc"></path>
        <path d="M1058.614,414.961v-8.6l-13.129-.027-25.253-12.046v9.276l17.754,6.818-17.754,7.158v9.919l25.487-12.5Z" transform="translate(-1001.72 -375.046)" fill="#babcbc"></path>
        <path d="M1156.538,455.811c0,24.684-3.2,36.633-12.222,45.656-7.53,7.532-17.745,10.6-35.259,10.6h-57.742V399.555h57.742c17.514,0,27.729,3.07,35.259,10.6,9.024,9.022,12.222,20.971,12.222,45.654" transform="translate(-972.636 -370.119)" fill="#babcbc"></path>
        <path d="M1113.459,525.573h-66.846V394.852h66.846c19.924,0,32.394,3.966,41.7,13.267,12.4,12.4,14.887,29.127,14.887,52.094,0,30.979-5.7,42.9-14.887,52.09-9.3,9.3-21.771,13.269-41.7,13.269m-48.638-18.205h48.638c18.355,0,24.7-3.815,28.821-7.937,6.051-6.053,9.555-14.409,9.555-39.218s-3.5-33.167-9.555-39.22c-4.123-4.121-10.466-7.936-28.821-7.936h-48.638Z" transform="translate(-977.035 -374.52)" fill="#babcbc"></path>
        <path d="M1100.921,436.218a15.652,15.652,0,1,1-15.652-15.749,15.7,15.7,0,0,1,15.652,15.749" transform="translate(-955.51 -350.549)" fill="#fff"></path>
        <path d="M1104.709,404.2h-48.745v33.792h4.249c5.629,0,8.564-2.431,13.006-6.113,5.556-4.6,12.47-10.329,25.063-10.329s19.509,5.728,25.064,10.329c4.442,3.682,7.379,6.113,13.006,6.113h6.386c-1.069-14-4.062-20.755-9.133-25.824-5.672-5.674-13.908-7.967-28.9-7.967" transform="translate(-968.285 -365.77)" fill="#1b1e1f"></path>
        <path d="M1123.347,441.687c-5.556,4.6-12.468,10.331-25.062,10.331s-19.51-5.728-25.065-10.331c-4.442-3.68-7.377-6.111-13.006-6.111h-4.251v33.792h48.747c14.989,0,23.225-2.3,28.9-7.967,5.07-5.07,8.064-11.827,9.133-25.825h-6.386c-5.627,0-8.564,2.431-13.006,6.111" transform="translate(-968.286 -336.413)" fill="#1b1e1f"></path>
        <path d="M1142.17,459.751c-9.592,0-15.132,4.592-20.023,8.643a48.453,48.453,0,0,1-6.58,4.816,19.605,19.605,0,0,0,0-31.862,48.147,48.147,0,0,1,6.58,4.818c4.891,4.049,10.432,8.641,20.023,8.641h18.881l-.069-3.1c-.488-21.76-4.024-33.2-13.053-42.228-8.159-8.163-19-11.49-37.4-11.49h-60.778v56.819h16.282c9.589,0,15.131-4.592,20.021-8.641a48.023,48.023,0,0,1,6.581-4.818,19.6,19.6,0,0,0,0,31.862,48.328,48.328,0,0,1-6.581-4.816c-4.89-4.051-10.432-8.643-20.021-8.643h-16.282V516.57h60.778c18.405,0,29.243-3.328,37.4-11.49,9.028-9.026,12.565-20.468,13.053-42.226l.069-3.1H1142.17Zm-52.555-5.643,6.241.5a8.49,8.49,0,0,0-.411,2.151l-6-1.661Zm18.43-4.551a8.548,8.548,0,0,0-2.064-.768l2.708-5.693.943.343Zm1.587,21.347-.943.345-2.621-5.505a8.582,8.582,0,0,0,2.023-.769Zm2.52-10.337,5.011,3.569-.5.867-5.6-2.553a8.564,8.564,0,0,0,1.084-1.883m-15.023,1.883L1091.535,465l-.5-.867,5.012-3.569a8.563,8.563,0,0,0,1.084,1.883m11.746,2.1a8.7,8.7,0,0,0,1.636-1.423l3.484,5.06-.768.647Zm9.708-4.311-6.175-.492a8.6,8.6,0,0,0,.366-2.151l5.985,1.653Zm-6.239-5.629,6.239-.5.177.989-6.005,1.661a8.642,8.642,0,0,0-.41-2.151m4.82-4.4-5.077,3.616a8.6,8.6,0,0,0-1.146-1.87l5.724-2.615Zm-11.961-1.525a5.486,5.486,0,0,0-2.209,0l.6-6.306h1Zm-9.413,11.063-6.175.492-.174-.989,5.983-1.653a8.743,8.743,0,0,0,.366,2.151m1.9,3.38a8.725,8.725,0,0,0,1.636,1.423l-4.35,4.284-.769-.647Zm2.419,1.851a8.614,8.614,0,0,0,2.023.769l-2.619,5.505-.943-.345Zm2.909.9a5.377,5.377,0,0,0,2.168,0l-.583,6.1h-1ZM1114,446.16l-3.564,5.176a8.7,8.7,0,0,0-1.694-1.4l4.489-4.419Zm-47.965,2.58h-10.215V404.053h54.711c16.62,0,26.214,2.818,33.113,9.717,6.653,6.649,9.841,15.192,10.906,30.04.115,1.58.211,3.2.277,4.93H1142.17c-7.406,0-11.458-3.359-16.152-7.247-5.2-4.311-11.1-9.195-21.918-9.195s-16.717,4.884-21.92,9.195c-4.692,3.889-8.746,7.247-16.149,7.247m28.942-3.225,2.675,2.633a4.314,4.314,0,0,1,2-.542l-1.08-4.168.943-.343,2.439,5.128a4.358,4.358,0,1,1-6.3,5.275l-4.619-3.291.5-.869,3.912,1.787a4.3,4.3,0,0,1,.884-1.872l-2.127-3.093Zm48.666,55.272c-6.9,6.9-16.492,9.717-33.113,9.717h-54.711V465.818h10.215c7.4,0,11.457,3.358,16.149,7.247,5.2,4.311,11.1,9.195,21.92,9.195s16.715-4.884,21.918-9.195c4.694-3.889,8.745-7.247,16.152-7.247h12.651c-.066,1.725-.162,3.353-.277,4.93-1.064,14.847-4.253,23.389-10.906,30.04" transform="translate(-974.101 -371.585)" fill="#1b1e1f"></path>
    </g>
</svg>